<svg width="16" height="10" viewBox="0 0 16 10" fill="none" xmlns="http://www.w3.org/2000/svg">
<path d="M0 2V0H2V2H0ZM0 10V4H2V10H0ZM7 10H5C4.45 10 3.97917 9.80417 3.5875 9.4125C3.19583 9.02083 3 8.55 3 8V2C3 1.45 3.19583 0.979167 3.5875 0.5875C3.97917 0.195833 4.45 0 5 0H7C7.55 0 8.02083 0.195833 8.4125 0.5875C8.80417 0.979167 9 1.45 9 2V8C9 8.55 8.80417 9.02083 8.4125 9.4125C8.02083 9.80417 7.55 10 7 10ZM5 8H7V2H5V8ZM10 10V8H14V6H12C11.45 6 10.9792 5.80417 10.5875 5.4125C10.1958 5.02083 10 4.55 10 4V2C10 1.45 10.1958 0.979167 10.5875 0.5875C10.9792 0.195833 11.45 0 12 0H16V2H12V4H14C14.55 4 15.0208 4.19583 15.4125 4.5875C15.8042 4.97917 16 5.45 16 6V8C16 8.55 15.8042 9.02083 15.4125 9.4125C15.0208 9.80417 14.55 10 14 10H10Z" fill="#1D1B19"/>
</svg>
